<svg xmlns="http://www.w3.org/2000/svg" viewBox="0 0 522.95 529.01" xmlns:v="https://vecta.io/nano"><path d="M124.51,368a27.76,27.76,0,0,0-27.68-27.68H59.08a20.19,20.19,0,0,0,20.13,20.13H96.83a7.55,7.55,0,1,1,0,15.1H59.08v35.24A20.19,20.19,0,0,0,79.21,431V398.12l26.93,26.8a20,20,0,0,0,28.44,0l-30.33-30.21A28.12,28.12,0,0,0,124.51,368Z" fill="#181818"/><path d="M179 340.35a45.31 45.31 0 1 0 45.3 45.3 45.27 45.27 0 0 0-45.3-45.3zm0 70.47a25.17 25.17 0 1 1 25.16-25.17A25.08 25.08 0 0 1 179 410.82z" fill="#087ad7"/><path d="M315.85 409.19a44.82 44.82 0 0 0 6.67-23.67 45.42 45.42 0 1 0-26.43 41.15 20 20 0 0 0 26.43-1.75l-31.21-31.09a20 20 0 0 0-28.44 0l16.86 16.74a17.72 17.72 0 0 1-2.52.12 25.17 25.17 0 1 1 25.17-25.17l-.25 4.54a20.16 20.16 0 0 0 13.72 19.13z" fill="#181818"/><path d="M328.46,431h30a20.2,20.2,0,0,0,20.14-20.14h-17l12.21-25.42,18.38,36.88c2.76,5.16,9.68,8.68,16.61,8.68h10.31l-45.3-90.61Z" fill="#087ad7"/><path d="M443.12 349.66l-9.19 15.86h-.13l-9.18-15.86a19.82 19.82 0 0 0-16.87-9.31h-11.7l27.81 48.07v22.4A20.12 20.12 0 0 0 444 431v-42.71l27.68-47.94h-11.57a19.84 19.84 0 0 0-16.99 9.31zM258.55 253a104.81 104.81 0 1 0-104.8-104.81A104.82 104.82 0 0 0 258.55 253zm.17-180.39a75.58 75.58 0 1 1-75.58 75.58 75.58 75.58 0 0 1 75.58-75.58zm128.64 81.23c4.24 10.76 15.82 18.82 27.86 16.68 11.62-1.85 21.28-14.6 16.84-26.46a17.71 17.71 0 0 0-12.73-11.22 14.19 14.19 0 0 0-15.14 6.71c-3.18 5-1.63 12.3 3.26 15.25 4.64 3.53 12 1 13.23-4.31a7.83 7.83 0 0 1-12.38 3.12 9.08 9.08 0 0 1-1.62-12.54 10.88 10.88 0 0 1 11.79-4.56 13.51 13.51 0 0 1 9.25 9c2.74 8.62-4.5 18.45-13.44 19.64-8.9 1.55-18.28-5-21.37-13.49-3.57-8.54-.5-18.89 6.24-25.57a28.61 28.61 0 0 1 26.3-7.66c19.35 4 33.22 30.75 29.87 47.34 3.81-9.71 1.23-22.4-4.2-31.55s-13.9-17.2-24.57-20.22c-10.83-3.16-23.15.29-31.2 8.24-8.12 7.69-12.35 20.44-7.99 31.6zm-254.25 0c-4.26 10.76-15.89 18.82-28 16.68-11.67-1.85-21.37-14.6-16.91-26.46a17.74 17.74 0 0 1 12.8-11.22 14.27 14.27 0 0 1 15.2 6.71c3.19 5 1.64 12.3-3.27 15.25-4.66 3.53-12.07 1-13.29-4.31 1.84 5.2 8.76 6.53 12.43 3.12a9 9 0 0 0 1.63-12.54 11 11 0 0 0-11.85-4.56 13.55 13.55 0 0 0-9.28 9c-2.76 8.62 4.52 18.45 13.49 19.64 9 1.55 18.36-5 21.47-13.49 3.59-8.54.51-18.89-6.27-25.57a28.81 28.81 0 0 0-26.42-7.66c-19.43 4-33.36 30.75-30 47.34-3.82-9.71-1.23-22.4 4.23-31.55S83 117.05 93.75 114c10.87-3.16 23.25.29 31.33 8.24 8.15 7.69 12.4 20.44 8.03 31.6z" fill="#181818"/><g fill="#087ad7"><path d="M260.68,253.56a112.11,112.11,0,0,0,209.78-55.07c0-29.36-13.46-62.41-29.84-76,9.74,15.92,14.34,34.87,14.34,54.78a112,112,0,0,1-194.24,76.21,2.53,2.53,0,0,0,.13-.22l-.17.17-.17-.17.13.22"/><path d="M260.34,253.56a112.61,112.61,0,0,1-98.06,57.07c-62.21,0-112.64-50.21-112.64-112.14,0-29.36,13.52-62.41,30-76-9.78,15.92-14.41,34.87-14.41,54.78,0,61.94,50.43,112.15,112.64,112.15a112.42,112.42,0,0,0,82.46-35.94,2.53,2.53,0,0,0-.13-.22l.17.17.17-.17-.12.22"/><circle cx="242" cy="21.86" r="16.72"/><circle cx="275.44" cy="21.94" r="16.72" transform="matrix(.987469 -.157813 .157813 .987469 -.01 43.75)"/></g><path d="M136.48 462.32a2.71 2.71 0 0 1 .76 2 4.27 4.27 0 0 1-.34 1.77l-13.16 39.48a3.13 3.13 0 0 1-1.14 1.52 3 3 0 0 1-1.89.59 3.45 3.45 0 0 1-2-.59 2.63 2.63 0 0 1-1.14-1.52L107.46 472l-10.12 33.59a2.88 2.88 0 0 1-1.18 1.56 3.34 3.34 0 0 1-1.86.55 3.09 3.09 0 0 1-1.9-.59 3.8 3.8 0 0 1-1.22-1.52L78 466.11a7.35 7.35 0 0 1-.25-1.77c0-1.86.89-2.79 2.7-2.79a3.19 3.19 0 0 1 3.2 2.45l10.8 32.9 10-32.81a3.73 3.73 0 0 1 1.14-1.86 3.49 3.49 0 0 1 4.14 0 3.65 3.65 0 0 1 1.13 1.86l9.71 32.65L131.25 464a3.14 3.14 0 0 1 3.12-2.45 2.83 2.83 0 0 1 2.11.77zm45.05 1.73a19.82 19.82 0 0 1 7.47 8.05 25.21 25.21 0 0 1 2.65 11.73 2.84 2.84 0 0 1-.84 2.15 3.06 3.06 0 0 1-2.19.8h-34.09a16.59 16.59 0 0 0 17.21 15.52 18.84 18.84 0 0 0 6.12-1.05 15 15 0 0 0 4.94-2.66 3.67 3.67 0 0 1 2.27-.84 3.15 3.15 0 0 1 1.86.67 3.07 3.07 0 0 1 1.1 2.28 2.55 2.55 0 0 1-.93 1.94 22.87 22.87 0 0 1-7.09 3.92 24.47 24.47 0 0 1-20.33-1.43 21.45 21.45 0 0 1-8.31-8.35 24.35 24.35 0 0 1-3-12.11 25.76 25.76 0 0 1 2.82-12.19 20.8 20.8 0 0 1 7.85-8.35 21.81 21.81 0 0 1 11.43-3 20.91 20.91 0 0 1 11.06 2.92zm-21.68 6.87a17.2 17.2 0 0 0-5.15 10.46h30.88a16.53 16.53 0 0 0-4.72-10.46 14.23 14.23 0 0 0-10.38-4 14.91 14.91 0 0 0-10.63 4zM249.61 505a22.14 22.14 0 0 1-8.23-8.43 24.11 24.11 0 0 1-3-11.94 25.24 25.24 0 0 1 2.87-12.1 21.25 21.25 0 0 1 7.93-8.4 21.73 21.73 0 0 1 11.39-3 21 21 0 0 1 17.12 8.09 2.6 2.6 0 0 1 .68 1.77 2.93 2.93 0 0 1-1.44 2.37 2.88 2.88 0 0 1-1.6.5 3.4 3.4 0 0 1-2.45-1.26 17.11 17.11 0 0 0-5.57-4.18 15.94 15.94 0 0 0-6.74-1.39 15.44 15.44 0 0 0-8.27 2.24 14.83 14.83 0 0 0-5.61 6.28 20.48 20.48 0 0 0-2 9.11 19 19 0 0 0 2.11 9 15.66 15.66 0 0 0 5.9 6.28 16.55 16.55 0 0 0 8.69 2.28q6.75 0 10.88-3.63a3.49 3.49 0 0 1 2.28-.93 3.14 3.14 0 0 1 3 2.95 2.37 2.37 0 0 1-.85 1.86q-6.06 5.65-15.35 5.65a22.77 22.77 0 0 1-11.74-3.12zm81.19-40.79a22.39 22.39 0 0 1 8.44 8.48 23.68 23.68 0 0 1 3.08 12v19.82a3.07 3.07 0 0 1-.93 2.28 3.19 3.19 0 0 1-2.36.93 3.29 3.29 0 0 1-2.36-.88 3.07 3.07 0 0 1-.93-2.33v-5.06a20.8 20.8 0 0 1-7.51 6.37 21.73 21.73 0 0 1-10 2.32 22.22 22.22 0 0 1-19.78-11.51 24.11 24.11 0 0 1-3-11.94 23.68 23.68 0 0 1 3.08-12 22.43 22.43 0 0 1 8.43-8.48 24.73 24.73 0 0 1 23.87 0zm-3.24 35.73a16.46 16.46 0 0 0 6.11-6.28 19.14 19.14 0 0 0 0-18 16.81 16.81 0 0 0-6.11-6.33 16.58 16.58 0 0 0-8.69-2.32 16.77 16.77 0 0 0-14.87 8.68 19.22 19.22 0 0 0 0 18 16.3 16.3 0 0 0 6.16 6.28 17 17 0 0 0 8.73 2.28 16.83 16.83 0 0 0 8.67-2.31zM388.17 462q2.07.93 2.07 2.61a2.82 2.82 0 0 1-.08.76 2.57 2.57 0 0 1-1.06 1.6 3.83 3.83 0 0 1-2 .43c-.51 0-1.38-.06-2.62-.17a16.59 16.59 0 0 0-2-.09 15.51 15.51 0 0 0-10.34 3.38 10.92 10.92 0 0 0-4 8.77v25.22a3.35 3.35 0 0 1-5.57 2.37 3.17 3.17 0 0 1-.84-2.37v-39.75a3.16 3.16 0 0 1 .84-2.36 3.21 3.21 0 0 1 5.57 2.36v3.71a16.71 16.71 0 0 1 6.24-5.48 17.76 17.76 0 0 1 8.18-1.94 13.93 13.93 0 0 1 5.61.95zm45.26 2.05a19.75 19.75 0 0 1 7.47 8.05 25.21 25.21 0 0 1 2.66 11.73 2.85 2.85 0 0 1-.85 2.15 3.06 3.06 0 0 1-2.19.8h-34.08a16.59 16.59 0 0 0 17.2 15.52 18.84 18.84 0 0 0 6.12-1.05 15 15 0 0 0 4.94-2.66 3.69 3.69 0 0 1 2.27-.84 3.15 3.15 0 0 1 1.86.67 3.07 3.07 0 0 1 1.1 2.28 2.55 2.55 0 0 1-.93 1.94 22.87 22.87 0 0 1-7.09 3.92 24.47 24.47 0 0 1-20.33-1.43 21.45 21.45 0 0 1-8.31-8.35 24.46 24.46 0 0 1-3-12.11 25.76 25.76 0 0 1 2.82-12.19 20.8 20.8 0 0 1 7.85-8.35 21.83 21.83 0 0 1 11.43-3 20.91 20.91 0 0 1 11.06 2.92zm-21.68 6.87a17.14 17.14 0 0 0-5.14 10.46h30.87a16.48 16.48 0 0 0-4.72-10.46 14.23 14.23 0 0 0-10.38-4 14.91 14.91 0 0 0-10.63 4z" fill="#181818"/></svg>